<svg xmlns="http://www.w3.org/2000/svg" viewBox="0 0 220 40" fill="none">
  <svg x="0" y="4" width="32" height="32" viewBox="0 0 32 32" fill="none"><g fill="#FF3C00" clip-path="url(#a-light)"><path fill-opacity=".12" d="M9.88 6.373c.767 0 1.388-.607 1.388-1.356S10.647 3.66 9.88 3.66s-1.387.607-1.387 1.356.621 1.356 1.387 1.356m3.747.001c.766 0 1.387-.607 1.387-1.356s-.62-1.356-1.387-1.356-1.388.607-1.388 1.356.621 1.356 1.388 1.356m3.746 0c.767 0 1.388-.607 1.388-1.356S18.14 3.66 17.373 3.66s-1.387.607-1.387 1.356.62 1.356 1.387 1.356M2.388 10.034c.766 0 1.387-.607 1.387-1.356s-.621-1.356-1.387-1.356C1.62 7.322 1 7.929 1 8.678s.621 1.356 1.388 1.356m3.746 0c.766 0 1.388-.607 1.388-1.356S6.9 7.322 6.134 7.322s-1.388.607-1.388 1.356.622 1.356 1.388 1.356m3.746 0c.767 0 1.388-.607 1.388-1.356s-.621-1.356-1.388-1.356-1.387.607-1.387 1.356.621 1.356 1.387 1.356m3.747 0c.766 0 1.387-.607 1.387-1.356s-.62-1.356-1.387-1.356-1.388.607-1.388 1.356.621 1.356 1.388 1.356m14.985 0c.767 0 1.388-.607 1.388-1.356s-.621-1.356-1.388-1.356-1.387.607-1.387 1.356.621 1.356 1.387 1.356M2.388 13.695c.766 0 1.387-.607 1.387-1.356s-.621-1.356-1.387-1.356C1.62 10.983 1 11.59 1 12.339s.621 1.356 1.388 1.356m3.746 0c.766 0 1.388-.607 1.388-1.356s-.622-1.356-1.388-1.356-1.388.607-1.388 1.356.622 1.356 1.388 1.356m3.746 0c.767 0 1.388-.607 1.388-1.356s-.621-1.356-1.388-1.356-1.387.607-1.387 1.356.621 1.356 1.387 1.356m3.747 0c.766 0 1.387-.607 1.387-1.356s-.62-1.356-1.387-1.356-1.388.607-1.388 1.356.621 1.356 1.388 1.356m11.239 0c.766 0 1.388-.607 1.388-1.356s-.622-1.356-1.388-1.356-1.387.607-1.387 1.356.62 1.356 1.387 1.356m3.746 0c.767 0 1.388-.607 1.388-1.356s-.621-1.356-1.388-1.356-1.387.607-1.387 1.356.621 1.356 1.387 1.356M2.388 17.356c.766 0 1.387-.607 1.387-1.356s-.621-1.356-1.387-1.356C1.62 14.644 1 15.251 1 16s.621 1.356 1.388 1.356m3.746 0c.766 0 1.388-.607 1.388-1.356s-.622-1.356-1.388-1.356-1.388.607-1.388 1.356.622 1.356 1.388 1.356m3.746 0c.767 0 1.388-.607 1.388-1.356s-.621-1.356-1.388-1.356-1.387.607-1.387 1.356.621 1.356 1.387 1.356m11.24 0c.766 0 1.387-.607 1.387-1.356s-.621-1.356-1.387-1.356c-.767 0-1.388.607-1.388 1.356s.621 1.356 1.388 1.356m3.746 0c.766 0 1.388-.607 1.388-1.356s-.622-1.356-1.388-1.356-1.387.607-1.387 1.356.62 1.356 1.387 1.356m3.746 0C29.38 17.356 30 16.749 30 16s-.621-1.356-1.388-1.356-1.387.607-1.387 1.356.621 1.356 1.387 1.356M2.388 21.017c.766 0 1.387-.607 1.387-1.356s-.621-1.356-1.387-1.356c-.767 0-1.388.607-1.388 1.356s.621 1.356 1.388 1.356m3.746 0c.766 0 1.388-.607 1.388-1.356s-.622-1.356-1.388-1.356-1.388.607-1.388 1.356.622 1.356 1.388 1.356m3.746 0c.767 0 1.388-.607 1.388-1.356s-.621-1.356-1.388-1.356-1.387.607-1.387 1.356.621 1.356 1.387 1.356m3.747 0c.766 0 1.387-.607 1.387-1.356s-.62-1.356-1.387-1.356-1.388.607-1.388 1.356.621 1.356 1.388 1.356m11.239 0c.766 0 1.388-.607 1.388-1.356s-.622-1.356-1.388-1.356-1.387.607-1.387 1.356.62 1.356 1.387 1.356m3.746 0c.767 0 1.388-.607 1.388-1.356s-.621-1.356-1.388-1.356-1.387.607-1.387 1.356.621 1.356 1.387 1.356M2.388 24.678c.766 0 1.387-.607 1.387-1.356s-.621-1.356-1.387-1.356c-.767 0-1.388.607-1.388 1.356s.621 1.356 1.388 1.356m3.746 0c.766 0 1.388-.607 1.388-1.356s-.622-1.356-1.388-1.356-1.388.607-1.388 1.356.622 1.356 1.388 1.356m3.746 0c.767 0 1.388-.607 1.388-1.356s-.621-1.356-1.388-1.356-1.387.607-1.387 1.356.621 1.356 1.387 1.356m3.747 0c.766 0 1.387-.607 1.387-1.356s-.62-1.356-1.387-1.356-1.388.607-1.388 1.356.621 1.356 1.388 1.356m14.985 0c.767 0 1.388-.607 1.388-1.356s-.621-1.356-1.388-1.356-1.387.607-1.387 1.356.621 1.356 1.387 1.356M9.88 28.339c.767 0 1.388-.607 1.388-1.356s-.621-1.356-1.388-1.356-1.387.607-1.387 1.356.621 1.356 1.387 1.356m3.747 0c.766 0 1.387-.607 1.387-1.356s-.62-1.356-1.387-1.356-1.388.607-1.388 1.356.621 1.356 1.388 1.356m3.746 0c.767 0 1.388-.607 1.388-1.356s-.621-1.356-1.388-1.356-1.387.607-1.387 1.356.62 1.356 1.387 1.356"/><path d="M2.388 2.712c.766 0 1.387-.607 1.387-1.356S3.154 0 2.388 0C1.62 0 1 .607 1 1.356s.621 1.356 1.388 1.356m3.746 0c.766 0 1.388-.607 1.388-1.356S6.9 0 6.134 0 4.746.607 4.746 1.356s.622 1.356 1.388 1.356m3.746 0c.767 0 1.388-.607 1.388-1.356S10.647 0 9.88 0 8.493.607 8.493 1.356s.621 1.356 1.387 1.356m3.747 0c.766 0 1.387-.607 1.387-1.356S14.394 0 13.627 0s-1.388.607-1.388 1.356.621 1.356 1.388 1.356m3.746 0c.767 0 1.388-.607 1.388-1.356S18.14 0 17.373 0s-1.387.607-1.387 1.356.62 1.356 1.387 1.356m3.747 0c.766 0 1.387-.607 1.387-1.356S21.886 0 21.12 0c-.767 0-1.388.607-1.388 1.356s.621 1.356 1.388 1.356m3.746 0c.766 0 1.388-.607 1.388-1.356S25.632 0 24.866 0s-1.387.607-1.387 1.356.62 1.356 1.387 1.356m3.746 0c.767 0 1.388-.607 1.388-1.356S29.379 0 28.612 0s-1.387.607-1.387 1.356.621 1.356 1.387 1.356M2.388 6.373c.766 0 1.387-.607 1.387-1.356S3.154 3.66 2.388 3.66C1.62 3.661 1 4.268 1 5.017s.621 1.356 1.388 1.356m3.746 0c.766 0 1.388-.607 1.388-1.356S6.9 3.66 6.134 3.66s-1.388.607-1.388 1.356.622 1.356 1.388 1.356m14.986.001c.766 0 1.387-.607 1.387-1.356S21.886 3.66 21.12 3.66c-.767 0-1.388.607-1.388 1.356s.621 1.356 1.388 1.356m3.746.001c.766 0 1.388-.607 1.388-1.356s-.622-1.356-1.388-1.356-1.387.607-1.387 1.356.62 1.356 1.387 1.356m3.746 0c.767 0 1.388-.607 1.388-1.356s-.621-1.356-1.388-1.356-1.387.607-1.387 1.356.621 1.356 1.387 1.356m-11.239 3.661c.767 0 1.388-.607 1.388-1.356s-.621-1.356-1.388-1.356-1.387.607-1.387 1.356.62 1.356 1.387 1.356m3.747 0c.766 0 1.387-.607 1.387-1.356s-.621-1.356-1.387-1.356c-.767 0-1.388.607-1.388 1.356s.621 1.356 1.388 1.356m3.746 0c.766 0 1.388-.607 1.388-1.356s-.622-1.356-1.388-1.356-1.387.607-1.387 1.356.62 1.356 1.387 1.356m-7.493 3.661c.767 0 1.388-.607 1.388-1.356s-.621-1.356-1.388-1.356-1.387.607-1.387 1.356.62 1.356 1.387 1.356m3.747 0c.766 0 1.387-.607 1.387-1.356s-.621-1.356-1.387-1.356c-.767 0-1.388.607-1.388 1.356s.621 1.356 1.388 1.356m-7.493 3.661c.766 0 1.387-.607 1.387-1.356s-.62-1.356-1.387-1.356-1.388.607-1.388 1.356.621 1.356 1.388 1.356m3.746 0c.767 0 1.388-.607 1.388-1.356s-.621-1.356-1.388-1.356-1.387.607-1.387 1.356.62 1.356 1.387 1.356m0 3.661c.767 0 1.388-.607 1.388-1.356s-.621-1.356-1.388-1.356-1.387.607-1.387 1.356.62 1.356 1.387 1.356m3.747 0c.766 0 1.387-.607 1.387-1.356s-.621-1.356-1.387-1.356c-.767 0-1.388.607-1.388 1.356s.621 1.356 1.388 1.356m-3.747 3.661c.767 0 1.388-.607 1.388-1.356s-.621-1.356-1.388-1.356-1.387.607-1.387 1.356.62 1.356 1.387 1.356m3.747 0c.766 0 1.387-.607 1.387-1.356s-.621-1.356-1.387-1.356c-.767 0-1.388.607-1.388 1.356s.621 1.356 1.388 1.356m3.746 0c.766 0 1.388-.607 1.388-1.356s-.622-1.356-1.388-1.356-1.387.607-1.387 1.356.62 1.356 1.387 1.356M2.388 28.339c.766 0 1.387-.607 1.387-1.356s-.621-1.356-1.387-1.356c-.767 0-1.388.607-1.388 1.356s.621 1.356 1.388 1.356m3.746 0c.766 0 1.388-.607 1.388-1.356s-.622-1.356-1.388-1.356-1.388.607-1.388 1.356.622 1.356 1.388 1.356m14.986 0c.766 0 1.387-.607 1.387-1.356s-.621-1.356-1.387-1.356c-.767 0-1.388.607-1.388 1.356s.621 1.356 1.388 1.356m3.746 0c.766 0 1.388-.607 1.388-1.356s-.622-1.356-1.388-1.356-1.387.607-1.387 1.356.62 1.356 1.387 1.356m3.746 0c.767 0 1.388-.607 1.388-1.356s-.621-1.356-1.388-1.356-1.387.607-1.387 1.356.621 1.356 1.387 1.356M2.388 32c.766 0 1.387-.607 1.387-1.356s-.621-1.356-1.387-1.356c-.767 0-1.388.607-1.388 1.356S1.621 32 2.388 32m3.746 0c.766 0 1.388-.607 1.388-1.356s-.622-1.356-1.388-1.356-1.388.607-1.388 1.356S5.368 32 6.134 32m3.746 0c.767 0 1.388-.607 1.388-1.356s-.621-1.356-1.388-1.356-1.387.607-1.387 1.356S9.114 32 9.88 32m3.747 0c.766 0 1.387-.607 1.387-1.356s-.62-1.356-1.387-1.356-1.388.607-1.388 1.356S12.86 32 13.627 32m3.746 0c.767 0 1.388-.607 1.388-1.356s-.621-1.356-1.388-1.356-1.387.607-1.387 1.356S16.606 32 17.373 32m3.747 0c.766 0 1.387-.607 1.387-1.356s-.621-1.356-1.387-1.356c-.767 0-1.388.607-1.388 1.356S20.353 32 21.12 32m3.746 0c.766 0 1.388-.607 1.388-1.356s-.622-1.356-1.388-1.356-1.387.607-1.387 1.356S24.099 32 24.866 32m3.746 0C29.38 32 30 31.393 30 30.644s-.621-1.356-1.388-1.356-1.387.607-1.387 1.356S27.846 32 28.612 32"/></g><defs><clipPath id="a-light"><path fill="#fff" d="M1 0h29v32H1z"/></clipPath></defs></svg>
  <text x="42" y="27" font-family="Inter, system-ui, -apple-system, BlinkMacSystemFont, 'Segoe UI', sans-serif" font-size="20" font-weight="600" fill="#0B0A0A" letter-spacing="-0.02em">BentoLabs</text>
</svg>
