<?xml version="1.0" encoding="utf-8"?>
<svg xmlns="http://www.w3.org/2000/svg" width="585" height="585" viewBox="0 0 585 585" fill="none">
<circle cx="292.5" cy="292.5" r="292.5" fill="#434A50"/>
<mask id="path-2-inside-1_9451_85" fill="white">
<path d="M292.168 110.785C303.161 110.785 316.276 110.785 320.356 113.177C322.928 114.684 325.07 116.826 326.577 119.397C328.969 123.478 328.969 128.975 328.969 139.968L328.733 160.276H333.945C350.371 160.276 363.664 160.276 368.767 165.379C373.869 170.482 373.869 174.252 373.869 190.678V213.055H377.353C393.779 213.055 395.644 213.054 400.747 218.157C405.85 223.26 405.85 231.474 405.85 247.899V268.04C421.016 268.055 433.136 268.324 437.955 273.143C445.732 280.92 443.828 300.037 443.828 308.353V334.793L443.814 336.647C442.702 414.99 371.221 475.593 292.602 475.593C213.364 475.593 145.953 411.357 145.953 332.119V302.574C145.953 287.791 145.953 278.494 150.546 273.901C155.138 269.309 162.531 269.31 177.313 269.31L178.487 269.303V247.899C178.487 231.474 178.487 223.26 183.59 218.157C188.693 213.054 190.558 213.055 206.983 213.055H211.34V190.677C211.34 174.251 211.34 170.482 216.442 165.379C221.545 160.276 235.473 160.276 251.898 160.276H256.121L256.003 139.968C256.003 128.975 256.003 123.478 258.395 119.397C259.902 116.826 262.044 114.684 264.615 113.177C268.695 110.785 281.175 110.785 292.168 110.785ZM357.209 322.011C351.704 322.011 347.241 326.397 347.241 331.807C347.241 331.98 347.247 332.152 347.256 332.322H347.241C347.241 363.075 321.35 388.005 290.058 388.005C284.553 388.005 280.09 392.391 280.09 397.801V428.735C280.09 434.145 286.276 439.562 294.01 439.562C353.805 439.562 398.949 390.911 399.704 332.322H399.689C399.698 332.152 399.704 331.98 399.704 331.807C399.704 326.396 395.24 322.011 389.735 322.011H357.209Z"/>
</mask>
<path d="M292.168 110.785C303.161 110.785 316.276 110.785 320.356 113.177C322.928 114.684 325.07 116.826 326.577 119.397C328.969 123.478 328.969 128.975 328.969 139.968L328.733 160.276H333.945C350.371 160.276 363.664 160.276 368.767 165.379C373.869 170.482 373.869 174.252 373.869 190.678V213.055H377.353C393.779 213.055 395.644 213.054 400.747 218.157C405.85 223.26 405.85 231.474 405.85 247.899V268.04C421.016 268.055 433.136 268.324 437.955 273.143C445.732 280.92 443.828 300.037 443.828 308.353V334.793L443.814 336.647C442.702 414.99 371.221 475.593 292.602 475.593C213.364 475.593 145.953 411.357 145.953 332.119V302.574C145.953 287.791 145.953 278.494 150.546 273.901C155.138 269.309 162.531 269.31 177.313 269.31L178.487 269.303V247.899C178.487 231.474 178.487 223.26 183.59 218.157C188.693 213.054 190.558 213.055 206.983 213.055H211.34V190.677C211.34 174.251 211.34 170.482 216.442 165.379C221.545 160.276 235.473 160.276 251.898 160.276H256.121L256.003 139.968C256.003 128.975 256.003 123.478 258.395 119.397C259.902 116.826 262.044 114.684 264.615 113.177C268.695 110.785 281.175 110.785 292.168 110.785ZM357.209 322.011C351.704 322.011 347.241 326.397 347.241 331.807C347.241 331.98 347.247 332.152 347.256 332.322H347.241C347.241 363.075 321.35 388.005 290.058 388.005C284.553 388.005 280.09 392.391 280.09 397.801V428.735C280.09 434.145 286.276 439.562 294.01 439.562C353.805 439.562 398.949 390.911 399.704 332.322H399.689C399.698 332.152 399.704 331.98 399.704 331.807C399.704 326.396 395.24 322.011 389.735 322.011H357.209Z" fill="url(#paint0_linear_9451_85)"/>
<path d="M292.168 110.785V109.455V110.785ZM320.356 113.177L321.029 112.029L321.029 112.029L320.356 113.177ZM326.577 119.397L327.725 118.725L327.725 118.725L326.577 119.397ZM328.969 139.968L330.299 139.983L330.299 139.975V139.968H328.969ZM328.733 160.276L327.403 160.261L327.388 161.607H328.733V160.276ZM368.767 165.379L369.707 164.438L369.707 164.438L368.767 165.379ZM373.869 213.055H372.539V214.385H373.869V213.055ZM400.747 218.157L401.688 217.217L401.688 217.217L400.747 218.157ZM405.85 268.04H404.519V269.369L405.848 269.37L405.85 268.04ZM437.955 273.143L438.896 272.202L438.896 272.202L437.955 273.143ZM443.828 334.793L445.158 334.803V334.793H443.828ZM443.814 336.647L445.145 336.666L445.145 336.657L443.814 336.647ZM292.602 475.593V476.923V475.593ZM145.953 332.119H144.623H145.953ZM150.546 273.901L149.605 272.961L149.605 272.961L150.546 273.901ZM177.313 269.31V270.64L177.321 270.64L177.313 269.31ZM178.487 269.303L178.495 270.633L179.818 270.625V269.303H178.487ZM183.59 218.157L182.649 217.217L182.649 217.217L183.59 218.157ZM206.983 213.055V214.385V213.055ZM211.34 213.055V214.385H212.67V213.055H211.34ZM211.34 190.677H210.01H211.34ZM216.442 165.379L215.502 164.438L215.502 164.438L216.442 165.379ZM251.898 160.276V161.607V160.276ZM256.121 160.276V161.607H257.459L257.451 160.269L256.121 160.276ZM256.003 139.968H254.673L254.673 139.976L256.003 139.968ZM258.395 119.397L257.247 118.725L257.247 118.725L258.395 119.397ZM264.615 113.177L263.943 112.029L263.943 112.029L264.615 113.177ZM357.209 322.011V320.68H357.209L357.209 322.011ZM347.241 331.807H345.911H347.241ZM347.256 332.322V333.653H348.658L348.584 332.252L347.256 332.322ZM347.241 332.322V330.992H345.911L345.911 332.322H347.241ZM290.058 388.005V389.335V388.005ZM280.09 397.801H278.76H280.09ZM280.09 428.735H278.76H280.09ZM294.01 439.562L294.01 440.893H294.01V439.562ZM399.704 332.322L401.034 332.339L401.052 330.992H399.704V332.322ZM399.689 332.322L398.361 332.252L398.287 333.653H399.689V332.322ZM399.704 331.807H401.034H399.704ZM389.735 322.011V320.68V322.011ZM292.168 110.785V112.115C297.674 112.115 303.66 112.116 308.778 112.412C311.336 112.56 313.647 112.781 315.553 113.106C317.496 113.436 318.881 113.854 319.684 114.324L320.356 113.177L321.029 112.029C319.792 111.304 318.008 110.825 316 110.483C313.956 110.135 311.536 109.907 308.931 109.756C303.722 109.455 297.655 109.455 292.168 109.455V110.785ZM320.356 113.177L319.684 114.324C322.059 115.717 324.037 117.695 325.43 120.07L326.577 119.397L327.725 118.725C326.102 115.957 323.797 113.651 321.029 112.029L320.356 113.177ZM326.577 119.397L325.429 120.07C326.486 121.872 327.055 124.047 327.345 127.212C327.637 130.395 327.638 134.446 327.638 139.968H328.969H330.299C330.299 134.496 330.3 130.302 329.994 126.969C329.687 123.617 329.06 121.003 327.725 118.725L326.577 119.397ZM328.969 139.968L327.639 139.952L327.403 160.261L328.733 160.276L330.064 160.292L330.299 139.983L328.969 139.968ZM328.733 160.276V161.607H333.945V160.276V158.946H328.733V160.276ZM333.945 160.276V161.607C342.182 161.607 349.533 161.608 355.462 162.237C361.468 162.874 365.633 164.126 367.826 166.32L368.767 165.379L369.707 164.438C366.797 161.528 361.765 160.23 355.742 159.591C349.643 158.944 342.134 158.946 333.945 158.946V160.276ZM368.767 165.379L367.826 166.32C370.206 168.699 371.336 170.676 371.921 174.012C372.534 177.502 372.539 182.405 372.539 190.678H373.869H375.199C375.199 182.525 375.205 177.329 374.542 173.552C373.852 169.621 372.43 167.162 369.707 164.438L368.767 165.379ZM373.869 190.678H372.539V213.055H373.869H375.199V190.678H373.869ZM373.869 213.055V214.385H377.353V213.055V211.724H373.869V213.055ZM377.353 213.055V214.385C385.641 214.385 390.04 214.392 393.033 214.996C395.827 215.561 397.344 216.636 399.806 219.098L400.747 218.157L401.688 217.217C399.047 214.576 397.08 213.1 393.559 212.388C390.236 211.717 385.49 211.724 377.353 211.724V213.055ZM400.747 218.157L399.806 219.098C402.069 221.361 403.276 224.362 403.893 228.959C404.517 233.595 404.519 239.649 404.519 247.899H405.85H407.18C407.18 239.724 407.183 233.459 406.53 228.605C405.873 223.713 404.527 220.056 401.688 217.217L400.747 218.157ZM405.85 247.899H404.519V268.04H405.85H407.18V247.899H405.85ZM405.85 268.04L405.848 269.37C413.446 269.378 420.187 269.45 425.622 270.11C431.124 270.779 434.949 272.018 437.014 274.083L437.955 273.143L438.896 272.202C436.142 269.449 431.498 268.144 425.943 267.469C420.322 266.787 413.42 266.717 405.851 266.71L405.85 268.04ZM437.955 273.143L437.014 274.083C440.53 277.599 441.987 283.871 442.481 290.642C442.973 297.377 442.498 304.056 442.498 308.353H443.828H445.158C445.158 304.333 445.635 297.296 445.135 290.449C444.637 283.638 443.157 276.463 438.896 272.202L437.955 273.143ZM443.828 308.353H442.498V334.793H443.828H445.158V308.353H443.828ZM443.828 334.793L442.498 334.783L442.484 336.638L443.814 336.647L445.145 336.657L445.158 334.803L443.828 334.793ZM443.814 336.647L442.484 336.629C441.384 414.128 370.615 474.262 292.602 474.263V475.593V476.923C371.826 476.923 444.02 415.852 445.145 336.666L443.814 336.647ZM292.602 475.593V474.263C214.06 474.262 147.284 410.585 147.283 332.119H145.953H144.623C144.623 412.129 212.667 476.923 292.602 476.923V475.593ZM145.953 332.119H147.283V302.574H145.953H144.623V332.119H145.953ZM145.953 302.574H147.283C147.283 295.152 147.286 289.224 147.848 284.576C148.412 279.915 149.513 276.816 151.487 274.842L150.546 273.901L149.605 272.961C146.986 275.58 145.791 279.426 145.207 284.257C144.621 289.101 144.623 295.214 144.623 302.574H145.953ZM150.546 273.901L151.487 274.842C153.494 272.834 156.163 271.756 160.286 271.202C164.446 270.642 169.884 270.64 177.313 270.64V269.31V267.979C169.96 267.979 164.31 267.976 159.931 268.565C155.514 269.159 152.19 270.376 149.605 272.961L150.546 273.901ZM177.313 269.31L177.321 270.64L178.495 270.633L178.487 269.303L178.48 267.973L177.306 267.979L177.313 269.31ZM178.487 269.303H179.818V247.899H178.487H177.157V269.303H178.487ZM178.487 247.899H179.818C179.818 239.649 179.82 233.595 180.443 228.959C181.061 224.363 182.268 221.361 184.53 219.098L183.59 218.157L182.649 217.217C179.809 220.056 178.464 223.713 177.807 228.605C177.154 233.459 177.157 239.724 177.157 247.899H178.487ZM183.59 218.157L184.53 219.098C186.992 216.636 188.51 215.561 191.304 214.996C194.296 214.392 198.695 214.385 206.983 214.385V213.055V211.724C198.846 211.724 194.1 211.717 190.777 212.388C187.257 213.1 185.29 214.576 182.649 217.217L183.59 218.157ZM206.983 213.055V214.385H211.34V213.055V211.724H206.983V213.055ZM211.34 213.055H212.67V190.677H211.34H210.01V213.055H211.34ZM211.34 190.677H212.67C212.67 182.404 212.675 177.502 213.288 174.012C213.873 170.676 215.004 168.699 217.383 166.32L216.442 165.379L215.502 164.438C212.779 167.161 211.357 169.621 210.667 173.552C210.004 177.329 210.01 182.524 210.01 190.677H211.34ZM216.442 165.379L217.383 166.32C218.451 165.252 220.056 164.38 222.225 163.698C224.386 163.018 227.021 162.551 230.061 162.237C236.151 161.608 243.663 161.607 251.898 161.607V160.276V158.946C243.708 158.946 236.043 158.944 229.788 159.591C226.655 159.914 223.825 160.405 221.426 161.16C219.035 161.913 216.985 162.955 215.502 164.438L216.442 165.379ZM251.898 160.276V161.607H256.121V160.276V158.946H251.898V160.276ZM256.121 160.276L257.451 160.269L257.333 139.96L256.003 139.968L254.673 139.976L254.791 160.284L256.121 160.276ZM256.003 139.968H257.333C257.333 134.447 257.335 130.395 257.627 127.212C257.917 124.047 258.486 121.872 259.542 120.07L258.395 119.397L257.247 118.725C255.912 121.003 255.285 123.617 254.977 126.969C254.671 130.302 254.673 134.496 254.673 139.968H256.003ZM258.395 119.397L259.542 120.07C260.934 117.695 262.913 115.717 265.288 114.324L264.615 113.177L263.943 112.029C261.175 113.651 258.869 115.957 257.247 118.725L258.395 119.397ZM264.615 113.177L265.288 114.324C266.097 113.85 267.449 113.434 269.326 113.104C271.171 112.78 273.401 112.56 275.879 112.412C280.835 112.116 286.661 112.115 292.168 112.115V110.785V109.455C286.682 109.455 280.772 109.454 275.72 109.756C273.194 109.907 270.852 110.135 268.866 110.484C266.911 110.827 265.174 111.307 263.943 112.029L264.615 113.177ZM357.209 322.011L357.209 320.68C350.991 320.681 345.911 325.64 345.911 331.807H347.241H348.571C348.571 327.153 352.417 323.341 357.209 323.341L357.209 322.011ZM347.241 331.807H345.911C345.911 332.008 345.918 332.204 345.927 332.392L347.256 332.322L348.584 332.252C348.576 332.099 348.571 331.951 348.571 331.807H347.241ZM347.256 332.322V330.992H347.241V332.322V333.653H347.256V332.322ZM347.241 332.322H345.911C345.911 362.303 320.653 386.674 290.058 386.675V388.005V389.335C322.046 389.335 348.571 363.847 348.571 332.322H347.241ZM290.058 388.005V386.675C283.84 386.675 278.76 391.634 278.76 397.801H280.09H281.42C281.42 393.147 285.265 389.335 290.058 389.335V388.005ZM280.09 397.801H278.76V428.735H280.09H281.42V397.801H280.09ZM280.09 428.735H278.76C278.76 431.951 280.584 435.007 283.314 437.212C286.061 439.432 289.836 440.893 294.01 440.893L294.01 439.562L294.01 438.232C290.45 438.232 287.265 436.984 284.986 435.143C282.689 433.288 281.42 430.93 281.42 428.735H280.09ZM294.01 439.562V440.893C354.59 440.893 400.271 391.598 401.034 332.339L399.704 332.322L398.374 332.305C397.628 390.224 353.021 438.232 294.01 438.232V439.562ZM399.704 332.322V330.992H399.689V332.322V333.653H399.704V332.322ZM399.689 332.322L401.018 332.392C401.028 332.204 401.034 332.008 401.034 331.807H399.704H398.374C398.374 331.951 398.369 332.099 398.361 332.252L399.689 332.322ZM399.704 331.807H401.034C401.034 325.64 395.953 320.68 389.735 320.68V322.011V323.341C394.528 323.341 398.374 327.153 398.374 331.807H399.704ZM389.735 322.011V320.68H357.209V322.011V323.341H389.735V322.011Z" fill="white" mask="url(#path-2-inside-1_9451_85)"/>
<defs>
<linearGradient id="paint0_linear_9451_85" x1="334.5" y1="462.999" x2="305.278" y2="162.487" gradientUnits="userSpaceOnUse">
<stop stop-color="#C8CFD4"/>
<stop offset="1" stop-color="#F7F7F7"/>
</linearGradient>
</defs>
</svg>